{"title":"Riddick Trilogy DVDRip [H.264-MP4-AAC] ~ Mindbreaker","uid":5154819,"size":4417009465,"categoryP":"video","categoryS":"movies","magnet":"?xt=urn:btih:722680c75b98e1b55d2165ac9bb6e6a6ea09c026&amp;dn=Riddick+Trilogy+DVDRip+%5BH.264-MP4-AAC%5D+%7E+Mindbreaker&amp;tr=udp%3A%2F%2Ftracker.openbittorrent.com%3A80&amp;tr=udp%3A%2F%2Fopen.demonii.com%3A1337&amp;tr=udp%3A%2F%2Ftracker.coppersurfer.tk%3A6969&amp;tr=udp%3A%2F%2Fexodus.desync.com%3A6969","seeders":0,"leechers":1,"uploader":"mind3103","files":-1,"time":1257786478,"description":"//////////////////////////////////////////////////////\n// Pitch Black\n//////////////////////////////////////////////////////\n\nimdb : http://www.imdb.com/title/tt0134847/\nTagline: Fight Evil With Evil\nPlot: A group of marooned space travelers struggle for survival on a seemingly lifeless sun-scorched world\nTotal Size : 1.22 GB\n\nGeneral\nComplete name : Pitch Black 2000 DVDRip [H.264-MP4-AAC] ~ Mindbreaker.mp4\nFormat : H.264/AAC/MP4 - Anamophic\nSource : DVD (retail)\nFile size : 1.71 GiB\nDuration : 1h 43mn\nOverall bit rate : 2 357 Kbps\n\n\nVideo\nID : 1\nFormat : AVC\nFormat/Info : Advanced Video Codec\nFormat profile : &lt;a class=&quot;__cf_email__&quot; href=&quot;/cdn-cgi/l/email-protection&quot; data-cfemail=&quot;327f535b5c727e061c02&quot;&gt;[email&amp;#160;protected]&lt;/a&gt;&lt;script cf-hash='f9e31' type=&quot;text/javascript&quot;&gt;\n/* &lt;![CDATA[ */!function(){try{var t=&quot;currentScript&quot;in document?document.currentScript:function(){for(var t=document.getElementsByTagName(&quot;script&quot;),e=t.length;e--;)if(t[e].getAttribute(&quot;cf-hash&quot;))return t[e]}();if(t&amp;&amp;t.previousSibling){var e,r,n,i,c=t.previousSibling,a=c.getAttribute(&quot;data-cfemail&quot;);if(a){for(e=&quot;&quot;,r=parseInt(a.substr(0,2),16),n=2;a.length-n;n+=2)i=parseInt(a.substr(n,2),16)^r,e+=String.fromCharCode(i);e=document.createTextNode(e),c.parentNode.replaceChild(e,c)}}}catch(u){}}();/* ]]&gt; */&lt;/script&gt;\nDuration : 1h 43mn\nBit rate : 2130 Kbps\nWidth : 1018 pixels\nHeight : 434 pixels\nDisplay aspect ratio : 2.35\nFrame rate : 25.000 fps\nBits/(Pixel*Frame) : 0.193\nStream size : 1.54 GiB (90%)\nWriting library : x264 core 66\n\nAudio\nID : 2\nFormat : AAC\nFormat/Info : Advanced Audio Codec\nFormat profile : LC\nDuration : 1h 43mn\nBit rate : 224 Kbps\nChannel(s) : 6 channels\nSampling rate : 48.0 KHz\nStream size : 166 MiB (10%)\nLanguage : English\n\nSubtitle\nFormat : SubRip\nLanguage : Dutch\nSource : DVD (retail)\n &lt;a href=&quot;\nhttp://genesis.1337x.org:1337/announce&quot; rel=&quot;nofollow&quot; target=&quot;_NEW&quot;&gt;\nhttp://genesis.1337x.org:1337/announce&lt;/a&gt; &lt;a href=&quot;\nhttp://tracker.openbittorrent.com&quot; rel=&quot;nofollow&quot; target=&quot;_NEW&quot;&gt;\nhttp://tracker.openbittorrent.com&lt;/a&gt;\n\n\n\n//////////////////////////////////////////////////////\n// The Chronicles of Riddick\n//////////////////////////////////////////////////////\n\nimdb : http://www.imdb.com/title/tt0296572/\nTagline: All the power in the universe can't change destiny\nPlot: 5 years after Pitch Black, the wanted criminal Riddick arrives on a planet called Helion Prime, and finds himself up against an invading empire called the Necromongers, an army that plans to convert or kill all humans in the universe.\nTotal Size : 1.88GB\n\nGeneral\nComplete name : The Chronicles of Riddick 2004 DVDRip [H.264-MP4-AAC] ~ Mindbreaker.mp4\nFormat : H.264/AAC/MP4 - Anamophic\nSource : DVD (retail)\nFile size : 1.88 GiB\nDuration : 1h 54mn\nOverall bit rate : 2358 Kbps\n\n\nVideo\nID : 1\nFormat : AVC\nFormat/Info : Advanced Video Codec\nFormat profile : &lt;a class=&quot;__cf_email__&quot; href=&quot;/cdn-cgi/l/email-protection&quot; data-cfemail=&quot;c08da1a9ae808cf4eef0&quot;&gt;[email&amp;#160;protected]&lt;/a&gt;&lt;script cf-hash='f9e31' type=&quot;text/javascript&quot;&gt;\n/* &lt;![CDATA[ */!function(){try{var t=&quot;currentScript&quot;in document?document.currentScript:function(){for(var t=document.getElementsByTagName(&quot;script&quot;),e=t.length;e--;)if(t[e].getAttribute(&quot;cf-hash&quot;))return t[e]}();if(t&amp;&amp;t.previousSibling){var e,r,n,i,c=t.previousSibling,a=c.getAttribute(&quot;data-cfemail&quot;);if(a){for(e=&quot;&quot;,r=parseInt(a.substr(0,2),16),n=2;a.length-n;n+=2)i=parseInt(a.substr(n,2),16)^r,e+=String.fromCharCode(i);e=document.createTextNode(e),c.parentNode.replaceChild(e,c)}}}catch(u){}}();/* ]]&gt; */&lt;/script&gt;\nDuration : 1h 54mn\nBit rate : 2133 Kbps\nWidth : 1034 pixels\nHeight : 428 pixels\nDisplay aspect ratio : 2.35\nFrame rate : 25.000 fps\nBits/(Pixel*Frame) : 0.1953\nStream size : 1.70 GiB (90%)\nWriting library : x264 core 66\n\nAudio\nID : 2\nFormat : AAC\nFormat/Info : Advanced Audio Codec\nFormat profile : LC\nDuration : 1h 54mn\nBit rate : 222 Kbps\nChannel(s) : 6 channels\nSampling rate : 48.0 KHz\nStream size : 182 MiB (9%)\nLanguage : English\n\nSubtitle\nFormat : SubRip\nLanguage : Dutch\nSource : DVD (retail)\n &lt;a href=&quot;\nhttp://genesis.1337x.org:1337/announce&quot; rel=&quot;nofollow&quot; target=&quot;_NEW&quot;&gt;\nhttp://genesis.1337x.org:1337/announce&lt;/a&gt; &lt;a href=&quot;\nhttp://tracker.openbittorrent.com&quot; rel=&quot;nofollow&quot; target=&quot;_NEW&quot;&gt;\nhttp://tracker.openbittorrent.com&lt;/a&gt;\n\n\n\n//////////////////////////////////////////////////////\n// The Chronicles of Riddick - Dark Fury\n//////////////////////////////////////////////////////\n\nimdb : http://www.imdb.com/title/tt0407658/\nPlot: This story opens with the new action hero and the two other survivors of Pitch Black already caught by a giant spaceship filled with dread...\nTotal Size : 533 MB\n\nGeneral\nComplete name : The Chronicles of Riddick - Dark Fury 2004 DVDRip [H.264-MP4-AAC] ~ Mindbreaker/mp4\nFormat : H.264/AAC/MP4 - Anamophic\nSource : DVD (retail)\nFile size : 533 MB\nDuration : 33m 31s\nOverall bit rate : 2ÃƒÂ©ÃƒÂ©( Kbps\n\n\nVideo\nID : 1\nFormat : AVC\nFormat/Info : Advanced Video Codec\nFormat profile : &lt;a class=&quot;__cf_email__&quot; href=&quot;/cdn-cgi/l/email-protection&quot; data-cfemail=&quot;6a270b03042a265e445a&quot;&gt;[email&amp;#160;protected]&lt;/a&gt;&lt;script cf-hash='f9e31' type=&quot;text/javascript&quot;&gt;\n/* &lt;![CDATA[ */!function(){try{var t=&quot;currentScript&quot;in document?document.currentScript:function(){for(var t=document.getElementsByTagName(&quot;script&quot;),e=t.length;e--;)if(t[e].getAttribute(&quot;cf-hash&quot;))return t[e]}();if(t&amp;&amp;t.previousSibling){var e,r,n,i,c=t.previousSibling,a=c.getAttribute(&quot;data-cfemail&quot;);if(a){for(e=&quot;&quot;,r=parseInt(a.substr(0,2),16),n=2;a.length-n;n+=2)i=parseInt(a.substr(n,2),16)^r,e+=String.fromCharCode(i);e=document.createTextNode(e),c.parentNode.replaceChild(e,c)}}}catch(u){}}();/* ]]&gt; */&lt;/script&gt;\nDuration : 33m 31s\nBit rate : 2ÃƒÂ©ÃƒÂ©( Kbps\nWidth : 768 pixels\nHeight : 414 pixels\nDisplay aspect ratio : 1.855\nFrame rate : 25.000 fps\nBits/(Pixel*Frame) : 0.252\nStream size : 480 MB (90%)\nWriting library : x264 core 66\n\nAudio\nID : 2\nFormat : AAC\nFormat/Info : Advanced Audio Codec\nFormat profile : LC\nDuration : 33m 31s\nBit rate : 222 Kbps\nChannel(s) : 6 channels\nSampling rate : 48.0 KHz\nStream size : 53.2 MB (10%)\nLanguage : English\n\nSubtitle\nFormat : SubRip\nLanguage : Dutch\n &lt;a href=&quot;\nhttp://genesis.1337x.org:1337/announce&quot; rel=&quot;nofollow&quot; target=&quot;_NEW&quot;&gt;\nhttp://genesis.1337x.org:1337/announce&lt;/a&gt; &lt;a href=&quot;\nhttp://tracker.openbittorrent.com&quot; rel=&quot;nofollow&quot; target=&quot;_NEW&quot;&gt;\nhttp://tracker.openbittorrent.com&lt;/a&gt;\n\n","torrent":{"xt":"urn:btih:722680c75b98e1b55d2165ac9bb6e6a6ea09c026","amp;dn":"Riddick+Trilogy+DVDRip+%5BH.264-MP4-AAC%5D+%7E+Mindbreaker","amp;tr":["udp%3A%2F%2Ftracker.openbittorrent.com%3A80","udp%3A%2F%2Fopen.demonii.com%3A1337","udp%3A%2F%2Ftracker.coppersurfer.tk%3A6969","udp%3A%2F%2Fexodus.desync.com%3A6969"],"infoHash":"722680c75b98e1b55d2165ac9bb6e6a6ea09c026","infoHashBuffer":{"type":"Buffer","data":[114,38,128,199,91,152,225,181,93,33,101,172,155,182,230,166,234,9,192,38]},"announce":[],"urlList":[]}}